<svg width="162" height="24" viewBox="0 0 162 24" fill="none" xmlns="http://www.w3.org/2000/svg">
<path d="M27.2799 18.92L22.8499 23.67C22.7553 23.7749 22.6395 23.8585 22.5103 23.9154C22.381 23.9723 22.2411 24.0011 22.0999 24H1.09994C0.999569 23.9991 0.901594 23.9692 0.817845 23.9139C0.734097 23.8586 0.668153 23.7802 0.627975 23.6882C0.587797 23.5962 0.575102 23.4946 0.591421 23.3955C0.60774 23.2965 0.652377 23.2043 0.719943 23.13L5.14994 18.38C5.34791 18.1785 5.61751 18.0635 5.89994 18.06H26.8999C27.0003 18.0582 27.099 18.0861 27.1836 18.1401C27.2682 18.1942 27.335 18.272 27.3755 18.3638C27.4161 18.4557 27.4287 18.5574 27.4117 18.6564C27.3947 18.7553 27.3488 18.847 27.2799 18.92ZM22.8499 9.36003C22.7581 9.24971 22.6435 9.16045 22.5141 9.09833C22.3847 9.03621 22.2434 9.00269 22.0999 9.00003H1.09994C0.999565 8.99823 0.900889 9.0261 0.816281 9.08014C0.731673 9.13418 0.664896 9.21199 0.624321 9.30382C0.583745 9.39565 0.571174 9.49742 0.588185 9.59636C0.605195 9.6953 0.651029 9.78702 0.719943 9.86003L5.14994 14.61C5.2389 14.7259 5.35214 14.8208 5.48171 14.8882C5.61128 14.9556 5.75404 14.9937 5.89994 15H26.8999C27.0003 15.0018 27.099 14.974 27.1836 14.9199C27.2682 14.8659 27.335 14.7881 27.3755 14.6962C27.4161 14.6044 27.4287 14.5026 27.4117 14.4037C27.3947 14.3048 27.3488 14.213 27.2799 14.14L22.8499 9.36003ZM1.09994 5.94003H22.0999C22.3823 5.93654 22.6519 5.82151 22.8499 5.62003L27.2799 0.870029C27.3475 0.795795 27.3921 0.703593 27.4084 0.60455C27.4247 0.505507 27.412 0.403857 27.3719 0.311871C27.3317 0.219884 27.2658 0.141492 27.182 0.086157C27.0983 0.030822 27.0003 0.000909125 26.8999 2.89807e-05H5.89994C5.75872 -0.00104618 5.61886 0.0278057 5.48959 0.084685C5.36032 0.141564 5.24457 0.225181 5.14994 0.330029L0.719943 5.08003C0.651029 5.15304 0.605195 5.24476 0.588185 5.3437C0.571174 5.44264 0.583745 5.5444 0.624321 5.63623C0.664896 5.72806 0.731673 5.80587 0.816281 5.85992C0.900889 5.91396 0.999565 5.94183 1.09994 5.94003Z" fill="url(#paint0_linear_8_112)"/>
<path d="M53.23 10.1501H42V6.45005H56.15V2.75005H42C41.5154 2.74742 41.0351 2.84026 40.5864 3.02327C40.1377 3.20628 39.7294 3.47588 39.3849 3.81667C39.0404 4.15746 38.7664 4.56278 38.5785 5.00947C38.3907 5.45616 38.2926 5.93547 38.29 6.42005V10.1801C38.2926 10.6646 38.3907 11.144 38.5785 11.5906C38.7664 12.0373 39.0404 12.4426 39.3849 12.7834C39.7294 13.1242 40.1377 13.3938 40.5864 13.5768C41.0351 13.7598 41.5154 13.8527 42 13.8501H53.21V17.5501H38.52V21.2501H53.23C53.7192 21.2593 54.2055 21.1715 54.6605 20.9916C55.1155 20.8116 55.5304 20.5433 55.881 20.2019C56.2316 19.8606 56.5111 19.4531 56.7031 19.0031C56.8952 18.553 56.9961 18.0694 57 17.5801V13.8201C56.9961 13.3307 56.8952 12.8471 56.7031 12.397C56.5111 11.947 56.2316 11.5395 55.881 11.1982C55.5304 10.8568 55.1155 10.5885 54.6605 10.4086C54.2055 10.2286 53.7192 10.1408 53.23 10.1501Z" fill="white"/>
<path d="M75 2.75012H63.72C63.2346 2.74617 62.7532 2.83803 62.3033 3.02045C61.8534 3.20287 61.444 3.47226 61.0984 3.81318C60.7529 4.15411 60.478 4.55986 60.2895 5.00721C60.101 5.45455 60.0026 5.9347 60 6.42012V17.5801C60.0026 18.0647 60.1007 18.544 60.2885 18.9907C60.4764 19.4374 60.7504 19.8427 61.0949 20.1835C61.4394 20.5243 61.8477 20.7939 62.2964 20.9769C62.7451 21.1599 63.2254 21.2528 63.71 21.2501H75C75.9796 21.2554 76.9213 20.8721 77.6187 20.1841C78.316 19.4961 78.7121 18.5597 78.72 17.5801V6.42012C78.7121 5.44056 78.316 4.50411 77.6187 3.81613C76.9213 3.12815 75.9796 2.7448 75 2.75012ZM75 17.5501H63.75V6.45012H75V17.5501Z" fill="white"/>
<path d="M114.5 2.75018H103.5C103.015 2.74754 102.535 2.84038 102.086 3.02339C101.638 3.2064 101.229 3.476 100.885 3.81679C100.54 4.15759 100.266 4.5629 100.079 5.00959C99.8907 5.45628 99.7926 5.9356 99.79 6.42018V21.2502H103.53V15.1702H114.53V21.2502H118.27V6.42018C118.266 5.93087 118.165 5.44719 117.973 4.99714C117.781 4.54709 117.502 4.13961 117.151 3.79829C116.8 3.45697 116.386 3.18858 115.93 3.00867C115.475 2.82877 114.989 2.7409 114.5 2.75018ZM114.5 11.4702H103.5V6.47018H114.5V11.4702Z" fill="white"/>
<path d="M158.29 2.75005H147.29C146.805 2.74742 146.325 2.84026 145.876 3.02327C145.428 3.20628 145.019 3.47588 144.675 3.81667C144.33 4.15746 144.056 4.56278 143.869 5.00947C143.681 5.45616 143.583 5.93547 143.58 6.42005V21.2501H147.32V15.1701H158.27V21.2501H162V6.42005C161.997 5.93547 161.899 5.45616 161.711 5.00947C161.524 4.56278 161.25 4.15746 160.905 3.81667C160.561 3.47588 160.152 3.20628 159.704 3.02327C159.255 2.84026 158.775 2.74742 158.29 2.75005ZM158.29 11.4701H147.31V6.47005H158.26L158.29 11.4701Z" fill="white"/>
<path d="M136.5 17.55H135L129.65 4.29002C129.463 3.83378 129.145 3.4436 128.735 3.16929C128.325 2.89499 127.843 2.74902 127.35 2.75002H124C123.347 2.74735 122.719 3.00367 122.254 3.46285C121.789 3.92203 121.525 4.54667 121.52 5.20002V21.25H125.26V6.45002H126.76L132.12 19.71C132.307 20.1663 132.625 20.5564 133.035 20.8307C133.445 21.1051 133.927 21.251 134.42 21.25H137.75C138.073 21.2513 138.393 21.189 138.692 21.0666C138.991 20.9442 139.263 20.7641 139.492 20.5366C139.722 20.3091 139.904 20.0386 140.029 19.7407C140.154 19.4427 140.219 19.1231 140.22 18.8V2.80002H136.5V17.55Z" fill="white"/>
<path d="M85.77 2.75H82V17.58C82.0026 18.0646 82.1007 18.5439 82.2885 18.9906C82.4764 19.4373 82.7504 19.8426 83.0949 20.1834C83.4394 20.5242 83.8477 20.7938 84.2964 20.9768C84.7451 21.1598 85.2254 21.2526 85.71 21.25H97V17.55H85.77V2.75Z" fill="white"/>
<defs>
<linearGradient id="paint0_linear_8_112" x1="2.84994" y1="24.57" x2="24.8699" y2="-0.24997" gradientUnits="userSpaceOnUse">
<stop offset="0.08" stop-color="#9945FF"/>
<stop offset="0.3" stop-color="#8752F3"/>
<stop offset="0.5" stop-color="#5497D5"/>
<stop offset="0.6" stop-color="#43B4CA"/>
<stop offset="0.72" stop-color="#28E0B9"/>
<stop offset="0.97" stop-color="#19FB9B"/>
</linearGradient>
</defs>
</svg>
