<?xml version="1.0" encoding="utf-8"?>
<!-- Generator: Adobe Illustrator 24.0.0, SVG Export Plug-In . SVG Version: 6.00 Build 0)  -->
<svg version="1.1" id="Layer_1" xmlns="http://www.w3.org/2000/svg" xmlns:xlink="http://www.w3.org/1999/xlink" x="0px" y="0px"
	 viewBox="0 0 700 700" style="enable-background:new 0 0 700 700;" xml:space="preserve">
<style type="text/css">
	.st0{fill:#2A245F;}
	.st1{fill:url(#XMLID_111_);}
	.st2{fill:url(#XMLID_112_);}
	.st3{fill:url(#XMLID_113_);}
	.st4{fill:url(#XMLID_114_);}
	.st5{fill:url(#XMLID_115_);}
	.st6{fill:url(#XMLID_116_);}
	.st7{fill:#0D0B3A;}
	.st8{fill:url(#XMLID_117_);}
	.st9{fill:url(#XMLID_118_);}
	.st10{fill:url(#XMLID_119_);}
	.st11{fill:url(#XMLID_120_);}
	.st12{fill:url(#XMLID_121_);}
	.st13{fill:url(#XMLID_122_);}
	.st14{fill:url(#XMLID_123_);}
	.st15{fill:url(#XMLID_124_);}
	.st16{fill:url(#XMLID_125_);}
	.st17{fill:url(#XMLID_126_);}
	.st18{fill:url(#XMLID_127_);}
	.st19{fill:url(#XMLID_128_);}
	.st20{fill:#1E1240;}
	.st21{fill:url(#XMLID_129_);}
	.st22{fill:#F95297;}
	.st23{fill:#4C34A5;}
	.st24{fill:url(#XMLID_130_);}
	.st25{fill:#57DBDD;}
	.st26{fill:url(#XMLID_131_);}
	.st27{fill:#F47E27;}
	.st28{fill:url(#XMLID_132_);}
	.st29{fill:url(#XMLID_133_);}
	.st30{fill:url(#XMLID_134_);}
	.st31{fill:url(#XMLID_135_);}
	.st32{fill:url(#XMLID_136_);}
	.st33{fill:url(#XMLID_137_);}
	.st34{fill:url(#XMLID_138_);}
	.st35{fill:#FFFFFF;}
	.st36{fill:url(#XMLID_139_);}
	.st37{fill:url(#XMLID_140_);}
	.st38{fill:url(#XMLID_141_);}
	.st39{fill:url(#XMLID_142_);}
	.st40{fill:url(#XMLID_143_);}
	.st41{fill:url(#XMLID_144_);}
	.st42{fill:url(#XMLID_145_);}
	.st43{fill:url(#XMLID_146_);}
	.st44{fill:url(#XMLID_147_);}
	.st45{fill:url(#XMLID_148_);}
	.st46{fill:url(#XMLID_149_);}
	.st47{fill:url(#XMLID_150_);}
	.st48{fill:url(#XMLID_151_);}
	.st49{fill:url(#XMLID_152_);}
</style>
<g>
	<g>
		<g id="XMLID_107_">
			<path id="XMLID_109_" class="st0" d="M109.35,425.32l0.46,78.83c0.13,22.83,23.12,38.42,44.38,30.11l157.16-71.49
				c2.58-1.17,4.23-3.76,4.2-6.6l-0.57-55.14l-101.64-54.11L109.35,425.32z"/>
			
				<radialGradient id="XMLID_111_" cx="4014.7236" cy="452.8186" r="694.4108" gradientTransform="matrix(-0.7144 -0.6997 0.6997 -0.7144 2526.0901 3466.0059)" gradientUnits="userSpaceOnUse">
				<stop  offset="0" style="stop-color:#F59091"/>
				<stop  offset="0.5" style="stop-color:#EF475F"/>
				<stop  offset="0.5833" style="stop-color:#E84663"/>
				<stop  offset="0.7079" style="stop-color:#D3436E"/>
				<stop  offset="0.8576" style="stop-color:#B23F81"/>
				<stop  offset="1" style="stop-color:#8C3A96"/>
			</radialGradient>
			<path id="XMLID_108_" class="st1" d="M18.11,254.1l1.39,134.51c0.22,20.79,17.24,37.47,38.03,37.25l220.04-2.28c0,0,0,0,0,0
				c20.79-0.21,37.76,11.56,37.97,32.35l-0.73-70.37c0,0,0,0,0,0l-0.34-32.99c-1.35-4.08-5.46-6.33-10.31-6.28c0,0,0,0,0,0
				l-62.45,0.65c-5.9,0.06-10.73-4.67-10.79-10.57l-0.39-38.18c-0.06-5.9,4.67-10.73,10.57-10.79l62.45-0.65
				c4.85-0.05,8.97,3.14,10.32,7.55l-0.45-43.25c-0.22-20.79-17.24-37.47-38.03-37.25l-220.04,2.28
				C34.57,216.28,17.89,233.31,18.11,254.1z"/>
		</g>
		<linearGradient id="XMLID_112_" gradientUnits="userSpaceOnUse" x1="303.6451" y1="334.6516" x2="6.2177" y2="338.0342">
			<stop  offset="0" style="stop-color:#F59091"/>
			<stop  offset="0.1787" style="stop-color:#F08C92"/>
			<stop  offset="0.3808" style="stop-color:#E38192"/>
			<stop  offset="0.5941" style="stop-color:#CC6E93"/>
			<stop  offset="0.8139" style="stop-color:#AD5494"/>
			<stop  offset="1" style="stop-color:#8C3A96"/>
		</linearGradient>
		<path id="XMLID_106_" class="st2" d="M18.11,254.1l1.39,134.51c0.22,20.79,17.24,37.47,38.03,37.25l220.04-2.28c0,0,0,0,0,0
			c20.79-0.21,37.76,11.56,37.97,32.35l-0.73-70.37c0,0,0,0,0,0l-0.34-32.99c-1.35-4.08-5.46-6.33-10.31-6.28c0,0,0,0,0,0
			l-62.45,0.65c-5.9,0.06-10.73-4.67-10.79-10.57l-0.39-38.18c-0.06-5.9,4.67-10.73,10.57-10.79l62.45-0.65
			c4.85-0.05,8.97,3.14,10.32,7.55l-0.45-43.25c-0.22-20.79-17.24-37.47-38.03-37.25l-220.04,2.28
			C34.57,216.28,17.89,233.31,18.11,254.1z"/>
		<path id="XMLID_104_" class="st23" d="M315.55,455.93c-0.22-20.79-17.19-32.56-37.97-32.35c0,0,0,0,0,0l-168.22,1.74l0,0
			l0.46,78.83c0.13,22.83,23.12,38.42,44.38,30.11l157.16-71.49c2.58-1.18,4.23-3.76,4.2-6.6L315.55,455.93z"/>
	</g>
	<g>
		<g id="XMLID_101_">
			<path id="XMLID_103_" class="st0" d="M452.45,62.36l-67.16-41.27c-19.45-11.95-44.84-0.68-49.02,21.77l-22.37,171.2
				c-0.37,2.81,0.96,5.58,3.38,7.05l47.11,28.66l99.65-57.69L452.45,62.36z"/>
			
				<radialGradient id="XMLID_113_" cx="932.4246" cy="-882.8763" r="694.4108" gradientTransform="matrix(0.9716 -0.2366 0.2366 0.9716 -95.3019 1075.3304)" gradientUnits="userSpaceOnUse">
				<stop  offset="0" style="stop-color:#F59091"/>
				<stop  offset="0.5" style="stop-color:#EF475F"/>
				<stop  offset="0.5833" style="stop-color:#E84663"/>
				<stop  offset="0.7079" style="stop-color:#D3436E"/>
				<stop  offset="0.8576" style="stop-color:#B23F81"/>
				<stop  offset="1" style="stop-color:#8C3A96"/>
			</radialGradient>
			<path id="XMLID_102_" class="st3" d="M646.03,75.4L531.1,5.49c-17.76-10.8-40.92-5.16-51.72,12.6L365.02,206.09c0,0,0,0,0,0
				c-10.81,17.76-29.77,25.95-47.53,15.14l60.13,36.57c0,0,0,0,0,0l28.19,17.15c4.17,1.01,8.26-1.29,10.78-5.43c0,0,0,0,0,0
				l32.46-53.36c3.07-5.04,9.64-6.64,14.68-3.58l32.62,19.84c5.04,3.07,6.64,9.64,3.58,14.68l-32.46,53.36
				c-2.52,4.14-7.41,5.96-11.86,4.77l36.95,22.48c17.76,10.8,40.92,5.16,51.72-12.6l114.36-188.01
				C669.43,109.36,663.79,86.2,646.03,75.4z"/>
		</g>
		<linearGradient id="XMLID_114_" gradientUnits="userSpaceOnUse" x1="430.7432" y1="283.2842" x2="555.2634" y2="46.4289">
			<stop  offset="0" style="stop-color:#F59091"/>
			<stop  offset="0.1686" style="stop-color:#F08C92"/>
			<stop  offset="0.3789" style="stop-color:#E07F92"/>
			<stop  offset="0.6113" style="stop-color:#C76A93"/>
			<stop  offset="0.8579" style="stop-color:#A44D95"/>
			<stop  offset="1" style="stop-color:#8C3A96"/>
		</linearGradient>
		<path id="XMLID_100_" class="st4" d="M646.03,75.4L531.1,5.49c-17.76-10.8-40.92-5.16-51.72,12.6L365.02,206.09c0,0,0,0,0,0
			c-10.81,17.76-29.77,25.95-47.53,15.14l60.13,36.57c0,0,0,0,0,0l28.19,17.15c4.17,1.01,8.26-1.29,10.78-5.43c0,0,0,0,0,0
			l32.46-53.36c3.07-5.04,9.64-6.64,14.68-3.58l32.62,19.84c5.04,3.07,6.64,9.64,3.58,14.68l-32.46,53.36
			c-2.52,4.14-7.41,5.96-11.86,4.77l36.95,22.48c17.76,10.8,40.92,5.16,51.72-12.6l114.36-188.01
			C669.43,109.36,663.79,86.2,646.03,75.4z"/>
		<path id="XMLID_98_" class="st23" d="M317.49,221.24c17.76,10.8,36.72,2.62,47.53-15.14c0,0,0,0,0,0l87.43-143.73l0,0
			l-67.16-41.27c-19.45-11.95-44.84-0.68-49.02,21.77l-22.37,171.2c-0.37,2.81,0.96,5.58,3.38,7.05L317.49,221.24z"/>
	</g>
	<g>
		<g id="XMLID_95_">
			<path id="XMLID_97_" class="st0" d="M591.42,542.53l71.57-33.04c20.73-9.57,25.41-36.95,9.04-52.86L541.91,343.14
				c-2.14-1.87-5.18-2.29-7.75-1.09l-49.96,23.34l-7.2,114.92L591.42,542.53z"/>
			
				<radialGradient id="XMLID_115_" cx="2169.9065" cy="3217.1663" r="694.4108" gradientTransform="matrix(-0.3414 0.9399 -0.9399 -0.3414 4327.8887 -238.1882)" gradientUnits="userSpaceOnUse">
				<stop  offset="0" style="stop-color:#F59091"/>
				<stop  offset="0.5" style="stop-color:#EF475F"/>
				<stop  offset="0.5833" style="stop-color:#E84663"/>
				<stop  offset="0.7079" style="stop-color:#D3436E"/>
				<stop  offset="0.8576" style="stop-color:#B23F81"/>
				<stop  offset="1" style="stop-color:#8C3A96"/>
			</radialGradient>
			<path id="XMLID_96_" class="st5" d="M473.3,696.45l121.88-56.93c18.84-8.8,26.97-31.2,18.17-50.04l-93.13-199.37c0,0,0,0,0,0
				c-8.8-18.83-5.1-39.16,13.73-47.96l-63.76,29.79c0,0,0,0,0,0l-29.89,13.96c-3.15,2.91-3.5,7.59-1.45,11.98c0,0,0,0,0,0
				l26.43,56.59c2.5,5.35,0.19,11.7-5.16,14.2l-34.59,16.16c-5.35,2.5-11.7,0.19-14.2-5.16l-26.43-56.59
				c-2.05-4.39-0.85-9.46,2.6-12.52l-39.19,18.31c-18.84,8.8-26.97,31.2-18.17,50.04l93.13,199.37
				C432.07,697.12,454.47,705.25,473.3,696.45z"/>
		</g>
		<linearGradient id="XMLID_116_" gradientUnits="userSpaceOnUse" x1="424.9231" y1="394.9093" x2="552.4264" y2="674.6839">
			<stop  offset="0" style="stop-color:#F59091"/>
			<stop  offset="0.1695" style="stop-color:#F08C92"/>
			<stop  offset="0.3788" style="stop-color:#E17F92"/>
			<stop  offset="0.6091" style="stop-color:#C76A93"/>
			<stop  offset="0.8528" style="stop-color:#A54E95"/>
			<stop  offset="1" style="stop-color:#8C3A96"/>
		</linearGradient>
		<path id="XMLID_94_" class="st6" d="M473.3,696.45l121.88-56.93c18.84-8.8,26.97-31.2,18.17-50.04l-93.13-199.37c0,0,0,0,0,0
			c-8.8-18.83-5.1-39.16,13.73-47.96l-63.76,29.79c0,0,0,0,0,0l-29.89,13.96c-3.15,2.91-3.5,7.59-1.45,11.98c0,0,0,0,0,0
			l26.43,56.59c2.5,5.35,0.19,11.7-5.16,14.2l-34.59,16.16c-5.35,2.5-11.7,0.19-14.2-5.16l-26.43-56.59
			c-2.05-4.39-0.85-9.46,2.6-12.52l-39.19,18.31c-18.84,8.8-26.97,31.2-18.17,50.04l93.13,199.37
			C432.07,697.12,454.47,705.25,473.3,696.45z"/>
		<linearGradient id="XMLID_117_" gradientUnits="userSpaceOnUse" x1="536.4097" y1="397.9827" x2="650.15" y2="519.1824">
			<stop  offset="0" style="stop-color:#4C34A5"/>
			<stop  offset="0.9609" style="stop-color:#4C34A5"/>
		</linearGradient>
		<path id="XMLID_93_" class="st8" d="M533.95,342.15c-18.83,8.8-22.53,29.12-13.73,47.96c0,0,0,0,0,0l71.2,152.42l0,0l71.57-33.04
			c20.73-9.57,25.41-36.95,9.04-52.86L541.91,343.14c-2.14-1.87-5.18-2.29-7.75-1.09L533.95,342.15z"/>
	</g>
</g>
</svg>
